HIERARCHY
ROOT Hips
{
	OFFSET 0.000000 8.830580 0.000000
	CHANNELS 6 Xposition Yposition Zposition Zrotation Yrotation Xrotation 
	JOINT Spine
	{
		OFFSET 0.000000 0.010000 0.000000
		CHANNELS 3 Zrotation Yrotation Xrotation
		JOINT Spine1
		{
			OFFSET 0.000000 2.459130 0.000000
			CHANNELS 3 Zrotation Yrotation Xrotation
			JOINT Neck
			{
				OFFSET 0.000000 2.484630 0.000000
				CHANNELS 3 Zrotation Yrotation Xrotation
				JOINT Head_virtual
				{
					OFFSET 0.000000 0.000000 0.000000
					CHANNELS 3 Zrotation Yrotation Xrotation
					JOINT Head
					{
						OFFSET 0.000000 0.927525 0.000000
						CHANNELS 3 Zrotation Yrotation Xrotation
						End Site
						{
							OFFSET 0.000000 0.000000 0.000000
						}
					}
				}
				JOINT LeftUpArm_virtual
				{
					OFFSET 0.000000 0.000000 0.000000
					CHANNELS 3 Zrotation Yrotation Xrotation
					JOINT LeftUpArm
					{
						OFFSET 1.248820 0.000000 0.000000
						CHANNELS 3 Zrotation Yrotation Xrotation
						JOINT LeftForeArm
						{
							OFFSET 2.597580 0.000000 0.000000
							CHANNELS 3 Zrotation Yrotation Xrotation
							JOINT LeftHand
							{
								OFFSET 2.455420 0.000000 0.000000
								CHANNELS 3 Zrotation Yrotation Xrotation
								End Site
								{
									OFFSET 0.000000 0.000000 0.000000
								}
							}
						}
					}
				}
				JOINT RightUpArm_virtual
				{
					OFFSET -0.000000 -0.000000 -0.000000
					CHANNELS 3 Zrotation Yrotation Xrotation
					JOINT RightUpArm
					{
						OFFSET -1.248820 -0.000000 -0.000000
						CHANNELS 3 Zrotation Yrotation Xrotation
						JOINT RightForeArm
						{
							OFFSET -2.597580 -0.000000 -0.000000
							CHANNELS 3 Zrotation Yrotation Xrotation
							JOINT RightHand
							{
								OFFSET -2.455420 -0.000000 -0.000000
								CHANNELS 3 Zrotation Yrotation Xrotation
								End Site
								{
									OFFSET 0.000000 0.000000 0.000000
								}
							}
						}
					}
				}
			}
		}
	}
	JOINT LeftUpLeg
	{
		OFFSET 1.271939 0.000000 0.000000
		CHANNELS 3 Zrotation Yrotation Xrotation
		JOINT LeftLowLeg
		{
			OFFSET 0.000000 -4.342910 0.000000
			CHANNELS 3 Zrotation Yrotation Xrotation
			JOINT LeftFoot
			{
				OFFSET 0.000000 -4.487670 0.000000
				CHANNELS 3 Zrotation Yrotation Xrotation
				JOINT LeftToeBase
				{
					OFFSET 0.000000 0.000000 1.515070
					CHANNELS 3 Zrotation Yrotation Xrotation
					End Site
					{
						OFFSET 0.000000 0.000000 0.000000
					}
				}
			}
		}
	}
	JOINT RightUpLeg
	{
		OFFSET -1.271939 0.000000 0.000000
		CHANNELS 3 Zrotation Yrotation Xrotation
		JOINT RightLowLeg
		{
			OFFSET 0.000000 -4.342910 0.000000
			CHANNELS 3 Zrotation Yrotation Xrotation
			JOINT RightFoot
			{
				OFFSET 0.000000 -4.487670 0.000000
				CHANNELS 3 Zrotation Yrotation Xrotation
				JOINT RightToeBase
				{
					OFFSET 0.000000 0.000000 1.515070
					CHANNELS 3 Zrotation Yrotation Xrotation
					End Site
					{
						OFFSET 0.000000 0.000000 0.000000
					}
				}
			}
		}
	}
}
MOTION
Frames: 10
Frame Time: 0.041667
-22.381089 8.713814 59.255835 -46.988530 83.006048 -40.426436 1.145690 2.930189 -10.820918 9.385222 3.051691 12.955792 0.000000 0.000000 0.000000 -21.291840 11.055931 -8.878588 -2.721837 8.749988 -40.775743 -14.589700 8.144670 0.658822 -36.620602 -0.466531 49.324600 180.000000 -84.626198 -180.000000 3.206230 3.810720 -22.944099 22.821100 2.376500 7.426550 32.654800 28.140900 5.194340 0.000000 55.355000 0.000000 -10.770200 1.017450 -11.107100 -4.168790 9.674209 -27.428051 0.000000 0.000000 13.697500 17.182556 0.372740 10.421633 0.000000 0.000000 -40.190201 9.339938 -3.997984 5.462032 0.000000 0.000000 17.082001 10.001660 -6.066127 -0.906275 0.000000 0.000000 -31.090200 
-22.191139 8.699574 59.249843 -47.948069 83.140549 -41.333541 0.647584 2.904052 -11.125970 9.959537 3.178464 13.047725 0.000000 0.000000 0.000000 -21.722502 11.237839 -8.951815 -2.498055 8.612186 -40.560798 -14.926800 8.119740 0.496559 -36.525299 -0.211020 49.359100 -180.000000 -84.637398 180.000000 3.524010 3.714370 -23.126301 23.098499 2.233140 7.736010 32.670502 27.353399 6.160120 0.000000 54.104801 0.000000 -9.913370 1.206900 -10.812100 -4.022224 8.921915 -26.873863 0.000000 0.000000 14.072400 17.309736 -0.139928 12.087147 0.000000 0.000000 -39.964701 9.054437 -3.924624 5.472853 0.000000 0.000000 19.137600 10.486811 -5.569665 -0.570895 0.000000 0.000000 -32.230700 
-21.973596 8.694857 59.175700 -56.531149 84.418119 -51.686397 1.406618 2.515749 -10.111748 8.759073 2.486256 13.650398 0.000000 0.000000 0.000000 -21.951968 11.372040 -8.955761 -2.391672 8.606868 -40.423073 -15.156300 8.089060 0.490849 -36.419601 -0.109215 49.208500 -180.000000 -84.782997 180.000000 3.739670 3.526420 -23.357800 23.669701 2.127990 7.825280 32.686001 26.328600 7.438240 0.000000 52.522499 0.000000 -9.857630 1.324080 -10.721200 -4.079560 6.030039 -24.432543 0.000000 0.000000 14.814000 18.090906 0.441839 13.956513 0.000000 0.000000 -39.882401 7.445371 -6.551417 7.444516 0.000000 0.000000 21.206200 11.437489 -3.503387 0.417481 0.000000 0.000000 -33.497000 
-21.786858 8.699823 59.173877 -58.805292 84.689509 -53.982367 0.793867 2.460964 -10.374074 9.142490 2.585875 13.939781 0.000000 0.000000 0.000000 -22.743553 11.943192 -9.287251 -1.942647 8.602956 -40.143946 -15.174800 7.949090 0.440405 -36.587299 -0.010698 48.943298 -180.000000 -85.010902 180.000000 2.196750 2.437110 -28.657700 24.068001 1.898320 7.654930 33.107399 25.167000 8.556130 0.000000 50.751701 0.000000 -9.466250 1.467520 -10.485900 -3.802775 4.724757 -24.470676 0.000000 0.000000 17.053900 18.590586 1.286282 13.857742 0.000000 0.000000 -39.498501 7.154828 -6.225878 6.663860 0.000000 0.000000 24.613300 12.271604 -3.251573 1.496410 0.000000 0.000000 -34.007401 
-21.590985 8.709392 59.144652 -67.802791 85.072190 -63.492716 0.789946 2.216383 -10.054901 9.148918 2.351029 13.904840 0.000000 0.000000 0.000000 -23.175551 12.210841 -9.292356 -1.683817 8.605015 -39.959807 -15.204800 7.966110 0.632191 -36.816299 0.001650 48.754700 180.000000 -85.087799 -180.000000 2.321230 2.660480 -28.794001 24.242001 1.565210 7.662800 33.790699 23.901300 9.739200 0.000000 48.743099 0.000000 -9.422170 1.503400 -11.092200 -3.475781 2.541501 -24.040837 0.000000 0.000000 19.542299 19.302468 2.733303 13.467049 0.000000 0.000000 -39.178499 6.452795 -7.226324 6.059247 0.000000 0.000000 28.549200 13.368707 -1.956193 3.887169 0.000000 0.000000 -35.434700 
-21.399476 8.722712 59.110009 -77.904564 85.313436 -74.046793 0.886180 2.083950 -9.780863 9.044505 2.193423 13.895486 0.000000 0.000000 0.000000 -23.403855 12.264107 -8.997019 -1.510241 8.580848 -40.257638 -15.221400 7.814190 0.836865 -36.914001 -0.005226 48.565300 -180.000000 -84.968002 -180.000000 2.434310 2.570880 -28.018200 24.414101 1.077670 7.576190 34.433998 22.606501 10.902500 0.000000 46.569500 0.000000 -9.784470 1.660270 -11.227800 -3.635306 1.831999 -23.337636 0.000000 0.000000 21.244499 20.239802 2.891995 12.837018 0.000000 0.000000 -39.607700 5.341570 -8.797674 4.883230 0.000000 0.000000 33.027100 14.030127 -0.019432 7.542961 0.000000 0.000000 -36.457300 
-21.219659 8.735634 59.079413 -80.812657 85.368716 -77.204577 0.767958 2.099924 -9.594975 9.218969 2.252733 13.824096 0.000000 0.000000 0.000000 -23.853421 12.437471 -8.558521 -1.353385 8.607362 -40.763708 -15.299400 7.752890 0.922618 -36.994202 0.186708 48.362900 -180.000000 -84.638603 180.000000 2.702300 2.461390 -27.750500 24.498199 0.782660 7.724840 34.884800 21.477100 11.730900 0.000000 44.199902 0.000000 -9.494600 1.544470 -11.798400 -3.996808 2.396797 -22.331788 0.000000 0.000000 21.900000 20.799305 2.771719 11.871480 0.000000 0.000000 -39.650600 4.533762 -8.774087 2.852104 0.000000 0.000000 38.109501 14.207782 0.675605 11.478229 0.000000 0.000000 -37.751400 
-21.039502 8.743689 59.032040 -86.074106 85.557678 -82.688231 0.904202 2.110744 -9.556385 8.960370 2.214786 13.881678 0.000000 0.000000 0.000000 -24.044799 12.486022 -8.201271 -1.455549 8.685760 -41.025368 -15.334100 7.698840 1.157410 -36.823002 0.047931 48.160301 -180.000000 -84.253403 180.000000 3.077700 2.491450 -27.157200 24.624901 0.397981 7.674930 35.241901 20.351700 12.651700 0.000000 41.803101 0.000000 -8.784410 1.403630 -11.967800 -4.539372 2.715464 -20.983774 0.000000 0.000000 21.844000 21.381308 2.734754 10.974603 0.000000 0.000000 -39.523899 3.575427 -8.539802 0.694010 0.000000 0.000000 43.257401 15.429689 1.510978 15.377127 0.000000 0.000000 -37.058901 
-20.873261 8.750535 58.995927 -84.575030 85.651394 -81.393472 0.854709 2.278288 -9.424928 8.966296 2.386780 13.940939 0.000000 0.000000 0.000000 -24.357514 12.665263 -8.147918 -1.528660 8.731319 -40.863269 -15.430000 7.640940 1.093510 -36.581402 0.114088 48.009399 180.000000 -83.959198 -180.000000 2.787000 2.270340 -27.800400 24.772100 0.114477 7.631320 35.403000 19.346300 13.518200 0.000000 39.362499 0.000000 -8.073520 1.407680 -11.401500 -4.850251 3.096328 -19.633037 0.000000 0.000000 21.723301 21.115196 2.764678 9.829174 0.000000 0.000000 -39.082899 3.048010 -6.874529 -1.810752 0.000000 0.000000 48.384300 17.293721 1.568571 18.859534 0.000000 0.000000 -34.211700 
-20.711007 8.759318 58.957284 -88.042644 85.583676 -84.790829 0.898342 2.081885 -9.613266 9.190381 2.186729 13.961673 0.000000 0.000000 0.000000 -24.834004 12.918463 -7.956041 -1.710009 8.839634 -40.532715 -15.623100 7.825130 2.404080 -36.415001 -0.720882 46.774399 -180.000000 -83.915398 180.000000 2.721550 2.556350 -27.285101 24.754000 0.323363 9.263090 35.055401 18.995600 12.921900 0.000000 36.967499 0.000000 -7.503020 0.985222 -10.938400 -4.951453 3.071240 -18.741819 0.000000 0.000000 21.916800 21.109696 2.889508 8.768526 0.000000 0.000000 -38.781401 2.967281 -4.953642 -4.408740 0.000000 0.000000 52.560501 19.089059 1.018692 22.989532 0.000000 0.000000 -32.337700 
